<svg aria-hidden="true" style="position: absolute; width: 0; height: 0; overflow: hidden;" version="1.1" xmlns="http://www.w3.org/2000/svg" xmlns:xlink="http://www.w3.org/1999/xlink">
<defs>
<symbol id="icon-facebook" viewBox="0 0 18 32">
<path fill="#fff" style="fill: var(--color1, #fff)" d="M5.869 31.975v-13.631h-4.583v-5.417h4.583v-4.286c0-2.262 0.635-4.008 1.905-5.238 1.27-1.27 2.956-1.905 5.060-1.905 1.706 0 3.095 0.079 4.167 0.238v4.821h-2.857c-1.071 0-1.806 0.238-2.202 0.714-0.317 0.397-0.476 1.032-0.476 1.905v3.75h5.060l-0.714 5.417h-4.345v13.631h-5.595z"></path>
</symbol>
<symbol id="icon-twitter" viewBox="0 0 36 32">
<path fill="#fff" style="fill: var(--color1, #fff)" d="M31.875 8.749c0.046 0.185 0.070 0.486 0.070 0.903 0 2.454-0.463 4.907-1.389 7.361-0.926 2.407-2.245 4.63-3.958 6.667-1.667 1.991-3.843 3.611-6.528 4.861s-5.648 1.875-8.889 1.875c-4.074 0-7.801-1.088-11.181-3.264 0.509 0.046 1.088 0.070 1.736 0.070 3.38 0 6.412-1.042 9.097-3.125-1.62 0-3.056-0.463-4.306-1.389-1.204-0.972-2.037-2.176-2.5-3.611 0.463 0.046 0.903 0.070 1.319 0.070 0.648 0 1.296-0.070 1.944-0.208-1.111-0.231-2.106-0.695-2.986-1.389s-1.574-1.528-2.083-2.5c-0.509-1.018-0.764-2.106-0.764-3.264v-0.139c1.019 0.602 2.107 0.926 3.264 0.972-2.176-1.482-3.264-3.519-3.264-6.111 0-1.296 0.347-2.523 1.042-3.681 1.806 2.269 4.005 4.074 6.597 5.417 2.639 1.343 5.44 2.083 8.403 2.222-0.093-0.556-0.139-1.111-0.139-1.667 0-1.991 0.694-3.704 2.083-5.139 1.435-1.435 3.148-2.153 5.139-2.153 2.13 0 3.912 0.764 5.347 2.292 1.667-0.324 3.218-0.903 4.653-1.736-0.556 1.713-1.62 3.056-3.195 4.028 1.389-0.185 2.778-0.579 4.167-1.181-1.019 1.481-2.245 2.755-3.681 3.819z"></path>
</symbol>
<symbol id="icon-instagram" viewBox="0 0 32 32">
<path fill="#fff" style="fill: var(--color1, #fff)" d="M10.375 10.346c1.574-1.574 3.472-2.361 5.694-2.361s4.097 0.787 5.625 2.361c1.574 1.528 2.361 3.403 2.361 5.625s-0.787 4.12-2.361 5.694c-1.528 1.528-3.403 2.292-5.625 2.292s-4.12-0.764-5.694-2.292c-1.528-1.574-2.292-3.472-2.292-5.694s0.764-4.097 2.292-5.625zM12.389 19.652c1.019 1.018 2.245 1.528 3.681 1.528s2.662-0.509 3.681-1.528c1.018-1.018 1.528-2.245 1.528-3.681s-0.509-2.662-1.528-3.681c-1.018-1.018-2.245-1.528-3.681-1.528s-2.662 0.509-3.681 1.528c-1.019 1.019-1.528 2.245-1.528 3.681s0.509 2.662 1.528 3.681zM25.653 6.388c0.37 0.324 0.556 0.741 0.556 1.25s-0.185 0.949-0.556 1.319c-0.324 0.37-0.741 0.556-1.25 0.556s-0.949-0.185-1.319-0.556c-0.37-0.37-0.556-0.81-0.556-1.319s0.185-0.926 0.556-1.25c0.37-0.37 0.81-0.556 1.319-0.556s0.926 0.185 1.25 0.556zM31.556 9.582c0.046 1.25 0.070 3.38 0.070 6.389s-0.023 5.139-0.070 6.389c-0.139 2.824-0.995 5.023-2.569 6.597-1.528 1.528-3.704 2.338-6.528 2.431-1.25 0.092-3.38 0.139-6.389 0.139s-5.139-0.046-6.389-0.139c-2.824-0.139-5-0.972-6.528-2.5-0.602-0.556-1.088-1.204-1.458-1.944s-0.648-1.459-0.833-2.153c-0.139-0.694-0.208-1.505-0.208-2.431-0.093-1.25-0.139-3.38-0.139-6.389s0.046-5.162 0.139-6.458c0.139-2.778 0.972-4.931 2.5-6.458 1.528-1.574 3.704-2.431 6.528-2.569 1.25-0.046 3.38-0.069 6.389-0.069s5.139 0.023 6.389 0.069c2.824 0.139 5 0.995 6.528 2.569 1.574 1.528 2.431 3.704 2.569 6.528zM28.222 25.138c0.139-0.37 0.255-0.833 0.347-1.389 0.093-0.602 0.162-1.296 0.208-2.083 0.046-0.833 0.070-1.505 0.070-2.014s0-1.227 0-2.153c0-0.926 0-1.435 0-1.528 0-0.139 0-0.648 0-1.528 0-0.926 0-1.644 0-2.153s-0.023-1.157-0.070-1.944c-0.046-0.833-0.116-1.528-0.208-2.083-0.093-0.602-0.208-1.088-0.347-1.458-0.556-1.435-1.551-2.431-2.986-2.986-0.37-0.139-0.857-0.255-1.458-0.347-0.556-0.093-1.25-0.162-2.083-0.208-0.787-0.046-1.435-0.069-1.944-0.069-0.463 0-1.181 0-2.153 0-0.926 0-1.435 0-1.528 0s-0.602 0-1.528 0c-0.926 0-1.644 0-2.153 0s-1.181 0.023-2.014 0.069c-0.787 0.046-1.482 0.116-2.083 0.208-0.556 0.093-1.018 0.208-1.389 0.347-1.435 0.556-2.431 1.551-2.986 2.986-0.139 0.37-0.255 0.856-0.347 1.458-0.093 0.556-0.162 1.25-0.208 2.083-0.046 0.787-0.069 1.435-0.069 1.944 0 0.463 0 1.181 0 2.153 0 0.926 0 1.435 0 1.528 0 0.185 0 0.625 0 1.319 0 0.648 0 1.204 0 1.667 0 0.417 0 0.972 0 1.667 0.046 0.694 0.093 1.296 0.139 1.805 0.046 0.463 0.116 0.949 0.208 1.458s0.185 0.926 0.278 1.25c0.602 1.435 1.597 2.431 2.986 2.986 0.37 0.139 0.833 0.255 1.389 0.347 0.602 0.093 1.296 0.162 2.083 0.208 0.833 0.046 1.481 0.070 1.944 0.070 0.509 0 1.227 0 2.153 0 0.972 0 1.505 0 1.597 0 0.139 0 0.648 0 1.528 0 0.926 0 1.643 0 2.153 0s1.157-0.023 1.944-0.070c0.833-0.046 1.528-0.116 2.083-0.208 0.602-0.092 1.088-0.208 1.458-0.347 1.435-0.602 2.431-1.597 2.986-2.986z"></path>
</symbol>
<symbol id="icon-phone" viewBox="0 0 32 32">
<path d="M22 20c-2 2-2 4-4 4s-4-2-6-4-4-4-4-6 2-2 4-4-4-8-6-8-6 6-6 6c0 4 4.109 12.109 8 16s12 8 16 8c0 0 6-4 6-6s-6-8-8-6z"></path>
</symbol>
<symbol id="icon-envelop" viewBox="0 0 32 32">
<path d="M29 4h-26c-1.65 0-3 1.35-3 3v20c0 1.65 1.35 3 3 3h26c1.65 0 3-1.35 3-3v-20c0-1.65-1.35-3-3-3zM12.461 17.199l-8.461 6.59v-15.676l8.461 9.086zM5.512 8h20.976l-10.488 7.875-10.488-7.875zM12.79 17.553l3.21 3.447 3.21-3.447 6.58 8.447h-19.579l6.58-8.447zM19.539 17.199l8.461-9.086v15.676l-8.461-6.59z"></path>
</symbol>
<symbol id="icon-location" viewBox="0 0 32 32">
<path d="M16 0c-5.523 0-10 4.477-10 10 0 10 10 22 10 22s10-12 10-22c0-5.523-4.477-10-10-10zM16 16c-3.314 0-6-2.686-6-6s2.686-6 6-6 6 2.686 6 6-2.686 6-6 6z"></path>
</symbol>
</defs>
</svg>
